<svg xmlns="http://www.w3.org/2000/svg" viewBox="0 0 1440 440" width="1440" height="440">
<rect x="0" y="0" width="1440" height="440" rx="36" fill="#1B3A2E"/>
<g transform="translate(210,238) scale(0.84)">
<g fill="#FFFFFF">
<polygon points="-96,-150 -78,-176 -60,-150"/>
<polygon points="-54,-150 -36,-176 -18,-150"/>
<polygon points="-12,-150 6,-176 24,-150"/>
<polygon points="30,-150 48,-176 66,-150"/>
<polygon points="-138,-150 -120,-170 -102,-150" fill-opacity="0.55"/>
<polygon points="72,-150 90,-170 108,-150" fill-opacity="0.55"/>
</g>
<g stroke="#0F6E56" stroke-width="13" fill="none" stroke-linecap="round" stroke-linejoin="round">
<path d="M -118 -92 C -70 -56, -38 -26, 0 -110"/>
<path d="M 118 -92 C 70 -56, 38 -26, 0 -110"/>
</g>
<g stroke="#1D9E75" stroke-width="13" fill="none" stroke-linecap="round" stroke-linejoin="round">
<path d="M -132 -4 C -72 26, -36 48, 0 122"/>
<path d="M 132 -4 C 72 26, 36 48, 0 122"/>
</g>
<path d="M 0 -124 C 86 -94, 132 -44, 132 24 C 132 92, 70 138, 0 154 C -70 138, -132 92, -132 24 C -132 -44, -86 -94, 0 -124 Z" fill="none" stroke="#FFFFFF" stroke-width="6" stroke-opacity="0.16" stroke-linejoin="round"/>
<rect x="-7" y="-112" width="14" height="266" rx="7" fill="#FFFFFF"/>
<g fill="#C9A24B">
<circle cx="0" cy="-112" r="13"/><circle cx="0" cy="-40" r="10"/>
<circle cx="0" cy="32" r="10"/><circle cx="0" cy="104" r="10"/>
<polygon points="0,138 16,154 0,170 -16,154"/>
</g>
<g transform="translate(-118,-92)">
<rect x="-11" y="-13" width="22" height="26" rx="2" fill="#0F6E56"/>
<line x1="-5" y1="-6" x2="5" y2="-6" stroke="#0E241C" stroke-width="2"/>
<line x1="-5" y1="0" x2="5" y2="0" stroke="#0E241C" stroke-width="2"/>
<line x1="-5" y1="6" x2="2" y2="6" stroke="#0E241C" stroke-width="2"/>
</g>
<g transform="translate(118,-92)">
<circle cx="0" cy="0" r="13" fill="#0F6E56"/>
<path d="M -6 0 L -1 5 L 7 -5" fill="none" stroke="#0E241C" stroke-width="2.4" stroke-linecap="round" stroke-linejoin="round"/>
</g>
<g transform="translate(-132,-4)">
<rect x="-12" y="-12" width="24" height="24" rx="2" fill="#1D9E75"/>
<rect x="-4" y="-4" width="8" height="8" rx="1" fill="#0E241C"/>
</g>
<g transform="translate(132,-4)">
<circle cx="0" cy="0" r="13" fill="#1D9E75"/>
<g transform="translate(0,0) scale(1.0)">
<g stroke="#0E241C" stroke-width="2.1" fill="none" stroke-linecap="round" stroke-linejoin="round">
<path d="M -5.2 4.8 L -5.2 -3.0 L -0.4 -5.2"/>
<path d="M -0.4 1.2 L -0.4 -6.6 L 4.4 -8.8"/>
<line x1="-6.6" y1="0.2" x2="5.2" y2="-3.0"/>
<line x1="-6.6" y1="3.4" x2="5.2" y2="0.2"/>
</g></g>
</g>
</g>
<line x1="408" y1="128" x2="408" y2="330" stroke="#FFFFFF" stroke-width="1.5" stroke-opacity="0.20"/>
<g transform="translate(520.8199999999999,250) scale(0.14)" fill="#FFFFFF">
<path transform="translate(0,0) scale(1,-1)" d="M256.0004069175992 0Q168.16064758651078 0 116.58032379325539 52.5000508646999Q65 105.0001017293998 65 196.33357070193287Q65 219.6670396744659 68.33336724313327 247.1670396744659Q71.66673448626653 274.6670396744659 78.19310381752959 301.04602279853395Q84.71947314879263 327.42500592260205 92.33357070193286 347.3336724313327H189.66866734486265Q182.66866734486265 312.66714140386574 178.66866734486265 277.6672431332655Q174.66866734486265 242.66734486266532 174.66866734486265 208.33407934893185Q174.66866734486265 156.3154124176033 200.66866734486265 124.15841831460023Q226.66866734486265 92.00142421159715 268.6686673448627 92.00142421159715H616.3341810783317V488.3336724313327H722.6696846388606V0ZM298.0004069175992 495.33336724313324Q272.33346897253307 495.33336724313324 255.33341810783315 511.1668870803662Q238.33336724313327 527.0004069175992 238.33336724313327 559.3337741607324Q238.33336724313327 592.000508646999 255.33341810783315 607.6673448626653Q272.33346897253307 623.3341810783317 298.0004069175992 623.3341810783317Q325.6672431332655 623.3341810783317 341.50066124109867 606.6673957273651Q357.3340793489318 590.0006103763988 357.3340793489318 559.3337741607324Q357.3340793489318 528.6669379450661 341.33397761953205 512.0001525940997Q325.3338758901323 495.33336724313324 298.0004069175992 495.33336724313324ZM470.0003051881994 495.33336724313324Q442.33346897253307 495.33336724313324 426.33336724313324 512.1668362156663Q410.33326551373347 529.0003051881994 410.33326551373347 559.3337741607324Q410.33326551373347 590.0006103763988 426.33336724313324 606.6673957273651Q442.33346897253307 623.3341810783317 470.0003051881994 623.3341810783317Q498.33377416073245 623.3341810783317 513.8338758901323 606.0007629704985Q529.3339776195321 588.6673448626653 529.3339776195321 559.3337741607324Q529.3339776195321 530.3335707019329 513.6671922685657 512.8334689725331Q498.0004069175992 495.33336724313324 470.0003051881994 495.33336724313324Z"/>
<path transform="translate(808,0) scale(1,-1)" d="M100 760H209.00203458799592V0H100Z"/>
<path transform="translate(1117,0) scale(1,-1)" d="M89.33611393692777 -240Q56.3351983723296 -240 25.001271617497455 -231.3331637843337Q-6.33265513733469 -222.66632756866736 -40 -202.66571719226857L-2.6655137334689734 -125.6646998982706Q22.001220752797558 -138.6649033570702 39.50137334689725 -142.66500508647Q57.00152594099695 -146.6651068158698 78.3351983723296 -146.6651068158698Q121.66836215666328 -146.6651068158698 146.83499491353 -112.16531027466938Q172.00162767039674 -77.66551373346897 172.00162767039674 -22.33265513733469V488.3336724313327H277.670498474059V-21.333062054933876Q277.670498474059 -88.66642929806714 255.33697863682605 -137.83316378433366Q233.0034587995931 -186.9998982706002 191.16988809766022 -213.49994913530008Q149.33631739572735 -240 89.33611393692777 -240Z"/>
<path transform="translate(1480,0) scale(1,-1)" d="M338.75363070000225 92.00142421159715Q343.6684638860631 92.00142421159715 343.6684638860631 88.00142421159715V5Q343.6684638860631 0 338.6684638860631 0H100V760H209.00203458799592V92.00142421159715Z"/>
<path transform="translate(1814,0) scale(1,-1)" d="M668.335503560529 0Q624.0022380467955 0 585.6688708036622 16.333468972533062Q547.335503560529 32.666937945066124 508.66897253306206 71.66683621566632Q484.66876907426246 38.66663275686673 446.5019328585961 19.333316378433366Q408.3350966429298 0 355.6682604272635 0H-5Q-10 0 -10 5V88.00142421159715Q-10 92.00142421159715 -5 92.00142421159715H131.99938962360122V410.3336724313327H238.3348931841302V92.00142421159715H338.6674465920651Q387.33418107833165 92.00142421159715 413.0007121057986 122.50127161749745Q438.6672431332655 153.00111902339776 438.6672431332655 208.00142421159714V410.3336724313327H545.0027466937945V200.6678535096643Q545.0027466937945 191.33438453713123 544.836063072228 182.00096642929805Q544.6693794506613 172.6675483214649 543.336012207528 163.66744659206512Q568.336012207528 124.00111902339776 596.002492370295 108.00127161749745Q623.6689725330621 92.00142421159715 667.3354018311292 92.00142421159715H728.6687690742625V488.3336724313327H835.0042726347915V92.00142421159715H967.6708036622584Q972.6708036622584 92.00142421159715 972.6708036622584 88.00142421159715V5Q972.6708036622584 0 967.6708036622584 0Z"/>
<path transform="translate(2777,0) scale(1,-1)" d="M-5 0Q-10 0 -10 5V88.00142421159715Q-10 92.00142421159715 -5 92.00142421159715H115.33296032553407Q98.33316378433368 135.00081383519836 89.9998982706002 174.83387589013225Q81.66663275686673 214.66693794506614 81.66663275686673 252.00030518819938Q81.66663275686673 295.66693794506614 92.50015259409969 339.16729399796543Q103.33367243133266 382.6676500508647 122.66714140386571 418.00101729399796Q163.33418107833162 448.0009155645982 213.1677517802645 464.83413021363174Q263.00132248219734 481.6673448626653 310.6676500508647 481.6673448626653Q342.6677517802645 481.6673448626653 371.66785350966427 474.833977619532Q400.6679552390641 468.00061037639875 425.3347914547304 454.00061037639875Q475.3350966429298 425.6672431332655 502.66861648016277 373.83382502543236Q530.0021363173958 322.0004069175992 530.0021363173958 255.66683621566634Q530.0021363173958 216.33357070193287 522.5020854526958 182.66688708036622Q515.0020345879959 149.0002034587996 499.66856561546285 120.00020345879959Q468.6682604272635 62.33346897253306 412.83458799593086 31.16673448626653Q357.0009155645982 0 287.00061037639875 0ZM187.66826042726348 256.3323499491353Q187.66826042726348 217.33306205493386 195.00152594099694 177.5002543234995Q202.3347914547304 137.66744659206512 220.6677517802645 92.00142421159715H280.66663275686676Q323.9997965412004 92.00142421159715 354.9998474059003 111.83468972533063Q385.9998982706002 131.6679552390641 403.0 168.6677009155646Q420.0001017293998 205.66744659206512 420.0001017293998 256.33346897253307Q420.0001017293998 315.9997965412004 388.33372329603253 353.16617497456764Q356.6673448626653 390.3325534079349 309.6675483214649 390.3325534079349Q281.00122075279756 390.3325534079349 252.8347914547304 380.33270600203457Q224.66836215666328 370.33285859613426 200.66836215666328 353.6663275686673Q193.00172939979655 330.999491353001 190.33499491353 307.1659715157681Q187.66826042726348 283.3324516785351 187.66826042726348 256.3323499491353Z"/>
<path transform="translate(3709,0) scale(1,-1)" d="M331.6679552390641 0Q247.6675483214649 0 187.83392675483213 28.000050864699897Q128.00030518819938 56.000101729399795 96.50015259409969 109.00020345879959Q65 162.00030518819938 65 235.6671414038657Q65 315.3338758901323 100.00015259409969 371.50050864699904Q135.00030518819938 427.66714140386574 198.00045778229907 458.0004069175992Q261.00061037639875 488.3336724313327 345.00061037639875 488.3336724313327H398.3326551373347V546.6665310274669H505.00152594099694V92.00142421159715H622.6685656154629Q627.6685656154629 92.00142421159715 627.6685656154629 88.00142421159715V5Q627.6685656154629 0 622.6685656154629 0ZM398.66602238046795 92.00142421159715V396.3322482197355H348.00061037639875Q265.33468972533063 396.3322482197355 220.3350966429298 354.49933875890133Q175.335503560529 312.66642929806716 175.335503560529 236.00040691759918Q175.335503560529 166.33428280773143 215.66861648016277 129.1678535096643Q256.00172939979655 92.00142421159715 330.6680569684639 92.00142421159715ZM209.00040691759918 661.3333672431332Q183.33346897253307 661.3333672431332 166.33341810783315 677.1668870803662Q149.33336724313327 693.0004069175992 149.33336724313327 725.3337741607324Q149.33336724313327 758.000508646999 166.33341810783315 773.6673448626653Q183.33346897253307 789.3341810783317 209.00040691759918 789.3341810783317Q236.66724313326552 789.3341810783317 252.50066124109867 772.6673957273651Q268.3340793489318 756.0006103763988 268.3340793489318 725.3337741607324Q268.3340793489318 694.6669379450661 252.33397761953205 678.0001525940997Q236.33387589013225 661.3333672431332 209.00040691759918 661.3333672431332ZM381.0003051881994 661.3333672431332Q353.33346897253307 661.3333672431332 337.33336724313324 678.1668362156663Q321.33326551373347 695.0003051881994 321.33326551373347 725.3337741607324Q321.33326551373347 756.0006103763988 337.33336724313324 772.6673957273651Q353.33346897253307 789.3341810783317 381.0003051881994 789.3341810783317Q409.33377416073245 789.3341810783317 424.8338758901323 772.0007629704985Q440.33397761953205 754.6673448626653 440.33397761953205 725.3337741607324Q440.33397761953205 696.3335707019329 424.6671922685656 678.8334689725331Q409.0004069175992 661.3333672431332 381.0003051881994 661.3333672431332Z"/>
<path transform="translate(4327,0) scale(1,-1)" d="M-4.8615843610382345 0Q-10 0 -10 5V88.00142421159715Q-10 91.994424374471 -5.052498778446184 91.994424374471H115.66653102746693V468.33468972533063H222.00203458799592V286.66836215666325Q253.54221770091556 357.2393402121785 294.9387080366226 404.28665891585524Q336.3351983723296 451.33397761953205 387.5018311291964 474.83382502543236Q438.6684638860631 498.3336724313327 497.0018311291963 498.3336724313327Q613.335503560529 498.3336724313327 672.8356561546286 435.6668870803662Q732.3358087487284 373.0001017293998 732.3358087487284 240.66663275686673V92.00142421159715H863.6934076378731Q868.6690742624619 92.00142421159715 868.6690742624619 88.00142421159715V5Q868.6690742624619 0 863.5306586235001 0ZM626.0003051881994 92.00142421159715V239.0002034587996Q626.0003051881994 324.6606386787681 587.8338758901323 365.1631270708184Q549.6674465920651 405.66561546286874 472.33448626653103 405.66561546286874Q423.23677766790684 405.66561546286874 378.95256991228507 379.8325534079349Q334.66836215666325 353.999491353001 295.5018311291963 302.5Q256.3353001017294 251.00050864699898 222.00203458799592 172.6679552390641V92.00142421159715Z"/>
<path transform="translate(5186,0) scale(1,-1)" d="M-5 0Q-10 0 -10 5V88.00142421159715Q-10 91.89760180984275 -5.085166813939155 91.89760180984275H124.66642929806714V488.3336724313327H233.66846388606308V92.00142421159715H363.6684638860631Q368.6684638860631 92.00142421159715 368.6684638860631 88.00142421159715V5Q368.6684638860631 0 363.6684638860631 0ZM149.66653102746693 607.6683621566633Q121.9996948118006 607.6683621566633 105.99959308240079 624.5018311291964Q89.999491353001 641.3353001017294 89.999491353001 671.6687690742624Q89.999491353001 702.3356052899287 105.83290946083417 719.0023906408952Q121.66632756866733 735.6691759918617 149.66653102746693 735.6691759918617Q178.0 735.6691759918617 193.50010172939977 718.3357578840286Q209.00020345879958 701.0023397761954 209.00020345879958 671.6687690742624Q209.00020345879958 642.668565615463 193.33341810783315 625.1684638860631Q177.66663275686673 607.6683621566633 149.66653102746693 607.6683621566633Z"/>
<path transform="translate(5545,0) scale(1,-1)" d="M-5 0Q-10 0 -10 5V88.00142421159715Q-10 92.00142421159715 -5 92.00142421159715H115.33296032553407Q98.33316378433368 135.00081383519836 89.9998982706002 174.83387589013225Q81.66663275686673 214.66693794506614 81.66663275686673 252.00030518819938Q81.66663275686673 295.66693794506614 92.50015259409969 339.16729399796543Q103.33367243133266 382.6676500508647 122.66714140386571 418.00101729399796Q163.33418107833162 448.0009155645982 213.1677517802645 464.83413021363174Q263.00132248219734 481.6673448626653 310.6676500508647 481.6673448626653Q342.6677517802645 481.6673448626653 371.66785350966427 474.833977619532Q400.6679552390641 468.00061037639875 425.3347914547304 454.00061037639875Q475.3350966429298 425.6672431332655 502.66861648016277 373.83382502543236Q530.0021363173958 322.0004069175992 530.0021363173958 255.66683621566634Q530.0021363173958 216.33357070193287 522.5020854526958 182.66688708036622Q515.0020345879959 149.0002034587996 499.66856561546285 120.00020345879959Q468.6682604272635 62.33346897253306 412.83458799593086 31.16673448626653Q357.0009155645982 0 287.00061037639875 0ZM187.66826042726348 256.3323499491353Q187.66826042726348 217.33306205493386 195.00152594099694 177.5002543234995Q202.3347914547304 137.66744659206512 220.6677517802645 92.00142421159715H280.66663275686676Q323.9997965412004 92.00142421159715 354.9998474059003 111.83468972533063Q385.9998982706002 131.6679552390641 403.0 168.6677009155646Q420.0001017293998 205.66744659206512 420.0001017293998 256.33346897253307Q420.0001017293998 315.9997965412004 388.33372329603253 353.16617497456764Q356.6673448626653 390.3325534079349 309.6675483214649 390.3325534079349Q281.00122075279756 390.3325534079349 252.8347914547304 380.33270600203457Q224.66836215666328 370.33285859613426 200.66836215666328 353.6663275686673Q193.00172939979655 330.999491353001 190.33499491353 307.1659715157681Q187.66826042726348 283.3324516785351 187.66826042726348 256.3323499491353Z"/>
</g>
<text x="1380" y="312" text-anchor="end" font-family="DejaVu Sans, sans-serif" font-size="21.5" letter-spacing="3.2" fill="#9FC4B6">PROJECTS &amp; PROCUREMENT GOVERNANCE</text>
<polygon points="520.8199999999999,344 532.8199999999999,332 544.8199999999999,344" fill="#C9A24B"/>
<line x1="544.8199999999999" y1="344" x2="1380" y2="344" stroke="#C9A24B" stroke-width="2.5"/>
</svg>
